<?xml version="1.0" standalone="no"?>
<!DOCTYPE svg PUBLIC "-//W3C//DTD SVG 20010904//EN"
 "http://www.w3.org/TR/2001/REC-SVG-20010904/DTD/svg10.dtd">
<svg version="1.0" xmlns="http://www.w3.org/2000/svg"
 width="1080.000000pt" height="1080.000000pt" viewBox="0 0 1080.000000 1080.000000"
 preserveAspectRatio="xMidYMid meet">
<metadata>
Created by potrace 1.11, written by Peter Selinger 2001-2013
</metadata>
<g transform="translate(0.000000,1080.000000) scale(0.100000,-0.100000)"
fill="#000000" stroke="none">
<path d="M6367 8208 c-3 -7 -27 -43 -53 -79 -54 -73 -91 -126 -194 -272 -37
-54 -75 -108 -84 -120 -9 -12 -38 -53 -65 -92 -81 -114 -112 -154 -119 -153
-6 2 -94 -9 -146 -17 -31 -5 -84 -13 -141 -21 -27 -3 -59 -8 -70 -10 -11 -2
-40 -7 -65 -10 -25 -3 -52 -7 -60 -9 -8 -2 -42 -7 -75 -11 -33 -3 -62 -8 -65
-9 -3 -2 -30 -6 -60 -9 -30 -4 -66 -9 -80 -11 -14 -3 -43 -7 -65 -10 -22 -3
-49 -7 -61 -9 -12 -2 -45 -7 -74 -11 -29 -4 -60 -8 -69 -10 -9 -1 -56 -8 -105
-15 l-88 -12 28 -24 c16 -13 34 -23 41 -24 6 0 13 -4 15 -8 2 -5 78 -59 170
-122 l167 -113 -41 -31 c-65 -49 -178 -145 -234 -198 l-51 -49 -94 30 c-52 17
-105 33 -119 35 -14 3 -43 10 -65 15 -22 5 -58 12 -80 15 -22 3 -57 9 -79 12
-21 3 -52 8 -70 9 -49 5 -307 5 -351 -1 -22 -2 -65 -4 -95 -3 -386 8 -544 -4
-722 -51 -23 -7 -50 -13 -59 -15 -57 -11 -254 -87 -364 -140 -216 -105 -419
-250 -598 -429 -114 -114 -134 -137 -227 -261 -275 -364 -461 -819 -515 -1260
-4 -33 -9 -68 -10 -77 -20 -105 -20 -483 0 -586 2 -10 6 -43 10 -73 19 -159
96 -412 180 -584 229 -475 622 -789 1120 -896 80 -17 136 -22 285 -23 200 -1
267 5 405 35 156 33 290 79 432 144 l73 34 71 -29 c69 -29 244 -88 284 -96
212 -44 246 -48 420 -48 99 -1 205 2 235 6 170 21 388 87 547 166 93 46 246
141 288 179 11 10 36 31 55 46 19 16 64 57 100 92 65 63 65 63 135 69 233 21
544 104 729 194 l39 19 83 -33 c126 -51 296 -100 434 -124 159 -29 456 -35
600 -13 225 34 469 117 623 211 21 13 55 32 75 44 112 62 307 231 434 376 255
291 454 755 514 1197 3 28 8 59 10 70 31 154 21 629 -16 775 -5 19 -12 51 -15
70 -10 59 -56 210 -92 300 -120 297 -301 542 -569 770 -46 40 -230 170 -240
170 -3 0 -18 9 -33 20 -36 25 -272 142 -333 165 -27 10 -48 20 -48 24 1 3 19
19 41 34 23 16 39 30 38 32 -4 3 -77 11 -184 20 -38 3 -88 8 -110 10 -22 2
-67 7 -100 10 -33 3 -105 15 -160 25 -55 10 -125 22 -155 25 -30 3 -62 8 -70
10 -31 8 -239 18 -346 17 l-112 -1 -48 62 c-27 34 -52 67 -57 72 -14 19 -172
222 -252 327 -44 57 -109 143 -145 190 -36 48 -68 87 -71 88 -4 0 -9 -6 -12
-12z"/>
</g>
</svg>
