<?xml version="1.0" standalone="no"?>
<!DOCTYPE svg PUBLIC "-//W3C//DTD SVG 20010904//EN"
 "http://www.w3.org/TR/2001/REC-SVG-20010904/DTD/svg10.dtd">
<svg version="1.0" xmlns="http://www.w3.org/2000/svg"
 width="500.000000pt" height="500.000000pt" viewBox="0 0 500.000000 500.000000"
 preserveAspectRatio="xMidYMid meet">
<metadata>
Created by potrace 1.14, written by Peter Selinger 2001-2017
</metadata>
<g transform="translate(0.000000,500.000000) scale(0.100000,-0.100000)"
fill="#000000" stroke="none">
<path d="M2493 4858 c-5 -7 -64 -123 -131 -258 -66 -135 -231 -470 -367 -745
-136 -275 -251 -510 -256 -522 -5 -15 -18 -23 -34 -24 -14 -1 -28 -2 -32 -3
-5 -2 -35 -6 -68 -10 -33 -5 -68 -10 -77 -12 -18 -3 -230 -34 -263 -39 -26 -3
-113 -16 -144 -21 -13 -2 -45 -6 -70 -10 -25 -3 -57 -8 -71 -10 -14 -2 -59 -8
-101 -14 -41 -6 -85 -12 -96 -14 -11 -3 -44 -7 -74 -11 -30 -3 -65 -8 -79 -10
-14 -3 -38 -7 -55 -9 -16 -2 -48 -7 -70 -11 -22 -3 -53 -7 -70 -10 -309 -43
-425 -61 -425 -66 0 -5 218 -220 671 -660 610 -593 569 -550 563 -588 -3 -20
-11 -70 -19 -111 -8 -41 -24 -131 -35 -200 -11 -69 -23 -136 -25 -150 -9 -49
-47 -275 -50 -297 -2 -12 -6 -34 -9 -50 -11 -50 -16 -77 -22 -123 -3 -25 -7
-52 -9 -60 -3 -8 -7 -32 -11 -54 -3 -21 -8 -48 -10 -60 -2 -11 -11 -64 -19
-116 -9 -52 -18 -106 -21 -120 -3 -14 -7 -38 -10 -55 -2 -16 -7 -43 -10 -60
-19 -105 -25 -145 -30 -182 -5 -38 -3 -42 13 -36 10 3 23 9 28 13 11 8 202
109 540 285 72 37 157 82 190 100 33 18 110 58 170 90 61 32 151 79 200 105
387 205 397 210 410 200 6 -4 73 -40 150 -80 77 -40 176 -92 220 -115 44 -23
130 -68 190 -100 61 -32 142 -75 180 -95 39 -20 133 -70 210 -110 77 -40 167
-87 200 -105 33 -18 123 -65 200 -105 77 -40 144 -77 149 -81 27 -24 30 13 10
116 -5 27 -12 62 -19 105 -3 19 -8 42 -10 50 -2 8 -6 33 -10 55 -6 43 -72 436
-80 476 -5 22 -7 36 -20 114 -21 127 -107 628 -120 700 l-16 90 143 138 c79
77 222 216 319 310 96 95 311 304 477 466 167 162 299 298 295 302 -5 4 -33
10 -63 14 -30 4 -64 8 -75 10 -11 1 -41 6 -65 9 -25 3 -56 8 -70 10 -14 3 -45
7 -70 10 -25 3 -54 8 -66 10 -12 2 -45 7 -75 11 -30 3 -61 8 -69 10 -8 2 -40
7 -70 10 -30 3 -62 8 -70 10 -8 2 -37 7 -65 10 -27 3 -61 7 -75 10 -14 2 -43
7 -65 10 -22 3 -67 10 -100 15 -33 5 -85 12 -115 16 -30 3 -74 10 -97 15 -24
5 -46 8 -50 7 -5 -1 -28 2 -53 6 -25 4 -56 9 -70 11 -14 2 -74 11 -135 20 -60
9 -128 19 -150 22 -22 3 -41 6 -42 7 -2 1 -432 872 -670 1354 -74 151 -102
200 -110 190z"/>
</g>
</svg>
